<svg width="71" height="50" viewBox="0 0 71 50" fill="none" xmlns="http://www.w3.org/2000/svg">
<path fill-rule="evenodd" clip-rule="evenodd" d="M1 15.0769V13.0385C1 11.9339 1.89543 11.0385 3 11.0385H14.9521C15.4985 11.0385 16.0212 11.2621 16.3986 11.6573L19.6638 15.0769H54.6154C56.8245 15.0769 58.6154 16.8678 58.6154 19.0769V45C58.6154 47.2091 56.8245 49 54.6154 49H5C2.79086 49 1 47.2091 1 45V15.0769Z" fill="white"/>
<path d="M16.3986 11.6573L15.6753 12.3479V12.3479L16.3986 11.6573ZM19.6638 15.0769L18.9405 15.7675L19.236 16.0769H19.6638V15.0769ZM0 13.0385V15.0769H2V13.0385H0ZM3 10.0385C1.34315 10.0385 0 11.3816 0 13.0385H2C2 12.4862 2.44772 12.0385 3 12.0385V10.0385ZM14.9521 10.0385H3V12.0385H14.9521V10.0385ZM17.1218 10.9667C16.5558 10.3739 15.7718 10.0385 14.9521 10.0385V12.0385C15.2253 12.0385 15.4866 12.1503 15.6753 12.3479L17.1218 10.9667ZM20.387 14.3863L17.1218 10.9667L15.6753 12.3479L18.9405 15.7675L20.387 14.3863ZM19.6638 16.0769H54.6154V14.0769H19.6638V16.0769ZM54.6154 16.0769C56.2722 16.0769 57.6154 17.4201 57.6154 19.0769H59.6154C59.6154 16.3155 57.3768 14.0769 54.6154 14.0769V16.0769ZM57.6154 19.0769V45H59.6154V19.0769H57.6154ZM57.6154 45C57.6154 46.6569 56.2722 48 54.6154 48V50C57.3768 50 59.6154 47.7614 59.6154 45H57.6154ZM54.6154 48H5V50H54.6154V48ZM5 48C3.34315 48 2 46.6569 2 45H0C0 47.7614 2.23858 50 5 50V48ZM2 45V15.0769H0V45H2Z" fill="#6577D8"/>
<circle cx="53.0769" cy="17.2308" r="16.2308" fill="white" stroke="#6577D8" stroke-width="2"/>
<path d="M46.3077 16.6154L51.2818 23.422C51.6994 23.9935 52.5621 23.9622 52.9372 23.362L59.8462 12.3077" stroke="#6577D8" stroke-width="3" stroke-linecap="round"/>
</svg>
