<svg width="202" height="95" viewBox="0 0 202 95" fill="none" xmlns="http://www.w3.org/2000/svg">
<rect x="5" y="0.283508" width="48" height="48" rx="24" fill="white"/>
<path d="M34.435 18.3385C33.3921 18.3569 32.3874 18.7337 31.5897 19.4057C30.7921 20.0777 30.2501 21.0039 30.055 22.0285C29.0757 20.5065 28.3086 18.8579 27.775 17.1285H25.515V23.1285C25.515 23.6961 25.2895 24.2404 24.8882 24.6417C24.4869 25.043 23.9426 25.2685 23.375 25.2685C22.8074 25.2685 22.2631 25.043 21.8618 24.6417C21.4605 24.2404 21.235 23.6961 21.235 23.1285V17.1285L18.965 17.1785V23.1785C18.9716 24.3455 19.4416 25.462 20.2714 26.2825C21.1013 27.1029 22.223 27.5601 23.39 27.5535C24.5569 27.5469 25.6735 27.0769 26.4939 26.2471C27.3144 25.4173 27.7716 24.2955 27.765 23.1285V22.1285C28.2448 23.0696 28.7964 23.9723 29.415 24.8285L28.035 31.4385H30.355L31.355 26.6285C32.2818 27.2241 33.3634 27.5336 34.465 27.5185C35.677 27.5185 36.8394 27.037 37.6965 26.18C38.5535 25.3229 39.035 24.1605 39.035 22.9485C39.035 21.7365 38.5535 20.5741 37.6965 19.717C36.8394 18.86 35.677 18.3785 34.465 18.3785L34.435 18.3385ZM34.435 25.1685C33.4953 25.1382 32.5948 24.785 31.885 24.1685L32.115 23.2585V23.2085C32.275 22.2085 32.775 20.6085 34.465 20.6085C34.7613 20.6059 35.0552 20.6618 35.3299 20.7731C35.6045 20.8843 35.8545 21.0487 36.0654 21.2569C36.2763 21.465 36.444 21.7128 36.559 21.9859C36.6739 22.259 36.7337 22.5522 36.735 22.8485C36.7136 23.4485 36.469 24.0188 36.0491 24.448C35.6293 24.8771 35.0644 25.134 34.465 25.1685H34.435Z" fill="#2F2D47"/>
<rect x="77" y="0.283508" width="48" height="48" rx="24" fill="white"/>
<path d="M95.94 17.2835C95.9397 17.8139 95.7288 18.3225 95.3535 18.6974C94.9782 19.0723 94.4694 19.2828 93.939 19.2825C93.4086 19.2822 92.9 19.0713 92.5251 18.696C92.1502 18.3207 91.9397 17.8119 91.94 17.2815C91.9403 16.7511 92.1512 16.2425 92.5265 15.8676C92.9018 15.4927 93.4106 15.2822 93.941 15.2825C94.4714 15.2828 94.98 15.4937 95.3549 15.869C95.7298 16.2443 95.9403 16.7531 95.94 17.2835ZM96 20.7635H92V33.2835H96V20.7635ZM102.32 20.7635H98.34V33.2835H102.28V26.7135C102.28 23.0535 107.05 22.7135 107.05 26.7135V33.2835H111V25.3535C111 19.1835 103.94 19.4135 102.28 22.4435L102.32 20.7635Z" fill="#2F2D47"/>
<rect x="149" y="0.283508" width="48" height="48" rx="24" fill="white"/>
<path d="M175 25.7835H177.5L178.5 21.7835H175V19.7835C175 18.7535 175 17.7835 177 17.7835H178.5V14.4235C178.174 14.3805 176.943 14.2835 175.643 14.2835C172.928 14.2835 171 15.9405 171 18.9835V21.7835H168V25.7835H171V34.2835H175V25.7835Z" fill="#2F2D47"/>
<path fill-rule="evenodd" clip-rule="evenodd" d="M21.5688 84.4165C20.3851 85.473 18.8222 86.0586 17.107 86.0586C13.3261 86.0586 10.5495 83.302 10.5495 79.5173C10.5495 75.7325 13.2378 73.092 17.107 73.092C18.7923 73.092 20.3851 73.6492 21.5988 74.7057L22.4237 75.41L26.0891 71.7724L25.1717 70.9507C23.0149 69.0171 20.1513 67.9323 17.1057 67.9323C10.3103 67.9323 5.37556 72.8005 5.37556 79.4889C5.37556 86.149 10.4286 91.1913 17.1057 91.1913C20.2084 91.1913 23.1019 90.1064 25.2315 88.1419L26.1176 87.3202L22.3952 83.6852L21.5688 84.4165Z" fill="white"/>
<path d="M16.9276 75.6745C17.97 75.6745 18.9697 76.0856 19.7068 76.8174C20.4439 77.5492 20.858 78.5417 20.858 79.5766C20.858 80.6115 20.4439 81.604 19.7068 82.3358C18.9697 83.0676 17.97 83.4787 16.9276 83.4787C15.8852 83.4787 14.8855 83.0676 14.1484 82.3358C13.4113 81.604 12.9972 80.6115 12.9972 79.5766C12.9972 78.5417 13.4113 77.5492 14.1484 76.8174C14.8855 76.0856 15.8852 75.6745 16.9276 75.6745Z" fill="white"/>
<path d="M38.6251 76.6828C38.0524 76.6828 37.5402 76.5819 37.0885 76.3803C36.6448 76.1705 36.2697 75.8681 35.9632 75.4728L36.7376 74.6984C36.9231 74.9808 37.1772 75.2066 37.4999 75.376C37.8306 75.5373 38.1976 75.618 38.6009 75.618C38.98 75.618 39.3108 75.5454 39.5931 75.4002C39.8835 75.255 40.1093 75.0534 40.2707 74.7952C40.4401 74.529 40.5248 74.2145 40.5248 73.8515C40.5248 73.4804 40.4441 73.1658 40.2828 72.9077C40.1214 72.6496 39.9036 72.456 39.6294 72.3269C39.3632 72.1898 39.0688 72.1212 38.7461 72.1212C38.4154 72.1212 38.1129 72.1616 37.8387 72.2422C37.5725 72.3229 37.3184 72.46 37.0764 72.6536L37.0885 71.9276C37.2256 71.7582 37.3829 71.6211 37.5604 71.5163C37.7378 71.4114 37.9395 71.3307 38.1653 71.2743C38.3912 71.2178 38.6534 71.1896 38.9518 71.1896C39.5326 71.1896 40.0246 71.3106 40.428 71.5526C40.8313 71.7945 41.1378 72.1212 41.3475 72.5326C41.5653 72.944 41.6742 73.4038 41.6742 73.912C41.6742 74.4443 41.5411 74.9203 41.2749 75.3397C41.0168 75.7592 40.6578 76.0899 40.1981 76.3319C39.7383 76.5658 39.214 76.6828 38.6251 76.6828ZM37.0764 72.6536L36.4593 72.0365L36.8344 68.1647H37.875L37.4515 72.1454L37.0764 72.6536ZM37.0643 69.181L36.8344 68.1647H41.2507V69.181H37.0643ZM43.5823 76.6828C43.3564 76.6828 43.1668 76.6061 43.0136 76.4529C42.8684 76.2915 42.7958 76.102 42.7958 75.8842C42.7958 75.6583 42.8684 75.4728 43.0136 75.3276C43.1668 75.1744 43.3564 75.0977 43.5823 75.0977C43.8081 75.0977 43.9936 75.1744 44.1388 75.3276C44.2921 75.4728 44.3687 75.6583 44.3687 75.8842C44.3687 76.102 44.2921 76.2915 44.1388 76.4529C43.9936 76.6061 43.8081 76.6828 43.5823 76.6828ZM48.9992 76.6828C48.37 76.6828 47.7932 76.5053 47.2689 76.1504C46.7527 75.7955 46.3413 75.2953 46.0348 74.65C45.7283 73.9967 45.575 73.2304 45.575 72.3511C45.575 71.4719 45.7242 70.7096 46.0227 70.0643C46.3292 69.419 46.7406 68.9229 47.2568 68.5761C47.7731 68.2211 48.3418 68.0437 48.9629 68.0437C49.6001 68.0437 50.1769 68.2211 50.6931 68.5761C51.2093 68.9229 51.6167 69.419 51.9152 70.0643C52.2217 70.7096 52.3749 71.4759 52.3749 72.3632C52.3749 73.2425 52.2217 74.0088 51.9152 74.6621C51.6167 75.3074 51.2093 75.8076 50.6931 76.1625C50.1849 76.5093 49.6203 76.6828 48.9992 76.6828ZM48.975 75.6059C49.4186 75.6059 49.8058 75.4849 50.1365 75.2429C50.4753 74.9929 50.7415 74.6258 50.9351 74.1419C51.1287 73.6579 51.2255 73.061 51.2255 72.3511C51.2255 71.6413 51.1287 71.0484 50.9351 70.5725C50.7415 70.0885 50.4753 69.7255 50.1365 69.4835C49.7977 69.2335 49.4065 69.1084 48.9629 69.1084C48.5273 69.1084 48.1401 69.2335 47.8013 69.4835C47.4625 69.7255 47.1963 70.0885 47.0027 70.5725C46.8172 71.0484 46.7244 71.6413 46.7244 72.3511C46.7244 73.061 46.8172 73.6579 47.0027 74.1419C47.1963 74.6258 47.4625 74.9929 47.8013 75.2429C48.1401 75.4849 48.5313 75.6059 48.975 75.6059Z" fill="white"/>
<path d="M64.914 66.4602C65.1933 65.7097 66.2547 65.7097 66.534 66.4602L67.4975 69.0496C67.6226 69.3856 67.942 69.6095 68.3005 69.6124L71.1292 69.6353C71.9808 69.6422 72.3101 70.7465 71.6015 71.2188L69.4876 72.6273C69.1592 72.8462 69.0208 73.2596 69.1511 73.6321L69.9754 75.9872C70.2469 76.7629 69.3846 77.4439 68.693 77.0002L66.1907 75.3947C65.9063 75.2123 65.5417 75.2123 65.2573 75.3947L62.755 77.0002C62.0634 77.4439 61.2011 76.7629 61.4726 75.9872L62.2969 73.6321C62.4272 73.2596 62.2887 72.8462 61.9604 72.6273L59.8465 71.2188C59.1378 70.7465 59.4672 69.6422 60.3187 69.6353L63.1475 69.6124C63.5059 69.6095 63.8254 69.3856 63.9504 69.0496L64.914 66.4602Z" fill="white"/>
<path d="M85.6561 66.4602C85.9353 65.7097 86.9968 65.7097 87.2761 66.4602L88.2396 69.0496C88.3646 69.3856 88.6841 69.6095 89.0426 69.6124L91.8713 69.6353C92.7229 69.6422 93.0522 70.7465 92.3436 71.2188L90.2297 72.6273C89.9013 72.8462 89.7628 73.2596 89.8932 73.6321L90.7175 75.9872C90.989 76.7629 90.1267 77.4439 89.4351 77.0002L86.9328 75.3947C86.6484 75.2123 86.2838 75.2123 85.9994 75.3947L83.4971 77.0002C82.8054 77.4439 81.9432 76.7629 82.2146 75.9872L83.0389 73.6321C83.1693 73.2596 83.0308 72.8462 82.7025 72.6273L80.5886 71.2188C79.8799 70.7465 80.2093 69.6422 81.0608 69.6353L83.8895 69.6124C84.248 69.6095 84.5675 69.3856 84.6925 69.0496L85.6561 66.4602Z" fill="white"/>
<path d="M106.398 66.4602C106.677 65.7097 107.739 65.7097 108.018 66.4602L108.982 69.0496C109.107 69.3856 109.426 69.6095 109.785 69.6124L112.613 69.6353C113.465 69.6422 113.794 70.7465 113.086 71.2188L110.972 72.6273C110.643 72.8462 110.505 73.2596 110.635 73.6321L111.46 75.9872C111.731 76.7629 110.869 77.4439 110.177 77.0002L107.675 75.3947C107.39 75.2123 107.026 75.2123 106.741 75.3947L104.239 77.0002C103.548 77.4439 102.685 76.7629 102.957 75.9872L103.781 73.6321C103.911 73.2596 103.773 72.8462 103.445 72.6273L101.331 71.2188C100.622 70.7465 100.951 69.6422 101.803 69.6353L104.632 69.6124C104.99 69.6095 105.31 69.3856 105.435 69.0496L106.398 66.4602Z" fill="white"/>
<path d="M127.14 66.4602C127.419 65.7097 128.481 65.7097 128.76 66.4602L129.724 69.0496C129.849 69.3856 130.168 69.6095 130.527 69.6124L133.355 69.6353C134.207 69.6422 134.536 70.7465 133.828 71.2188L131.714 72.6273C131.385 72.8462 131.247 73.2596 131.377 73.6321L132.202 75.9872C132.473 76.7629 131.611 77.4439 130.919 77.0002L128.417 75.3947C128.133 75.2123 127.768 75.2123 127.484 75.3947L124.981 77.0002C124.29 77.4439 123.427 76.7629 123.699 75.9872L124.523 73.6321C124.653 73.2596 124.515 72.8462 124.187 72.6273L122.073 71.2188C121.364 70.7465 121.693 69.6422 122.545 69.6353L125.374 69.6124C125.732 69.6095 126.052 69.3856 126.177 69.0496L127.14 66.4602Z" fill="white"/>
<path d="M147.882 66.4602C148.162 65.7097 149.223 65.7097 149.502 66.4602L150.466 69.0496C150.591 69.3856 150.91 69.6095 151.269 69.6124L154.098 69.6353C154.949 69.6422 155.278 70.7465 154.57 71.2188L152.456 72.6273C152.128 72.8462 151.989 73.2596 152.119 73.6321L152.944 75.9872C153.215 76.7629 152.353 77.4439 151.661 77.0002L149.159 75.3947C148.875 75.2123 148.51 75.2123 148.226 75.3947L145.723 77.0002C145.032 77.4439 144.169 76.7629 144.441 75.9872L145.265 73.6321C145.396 73.2596 145.257 72.8462 144.929 72.6273L142.815 71.2188C142.106 70.7465 142.436 69.6422 143.287 69.6353L146.116 69.6124C146.474 69.6095 146.794 69.3856 146.919 69.0496L147.882 66.4602Z" fill="white"/>
<path d="M36.6166 91.84V83.4429H37.754V91.84H36.6166ZM37.391 91.84V90.7994H41.892V91.84H37.391ZM45.4222 91.961C44.9463 91.961 44.5187 91.8561 44.1396 91.6464C43.7686 91.4286 43.4782 91.1302 43.2684 90.751C43.0587 90.3719 42.9539 89.9323 42.9539 89.4322V86.0927H44.0428V89.3838C44.0428 89.6984 44.0953 89.9726 44.2001 90.2066C44.313 90.4324 44.4744 90.6058 44.6841 90.7268C44.8938 90.8478 45.1398 90.9083 45.4222 90.9083C45.8497 90.9083 46.1844 90.7752 46.4264 90.509C46.6684 90.2348 46.7894 89.8597 46.7894 89.3838V86.0927H47.8784V89.4322C47.8784 89.9323 47.7735 90.3719 47.5638 90.751C47.3541 91.1302 47.0637 91.4286 46.6926 91.6464C46.3296 91.8561 45.9062 91.961 45.4222 91.961ZM53.1129 91.84L51.3222 89.3233L51.1165 89.1297L48.8539 86.0927H50.1728L51.8062 88.3311L52.0119 88.5005L54.4318 91.84H53.1129ZM48.745 91.84L51.1165 88.6457L51.7336 89.4443L50.0276 91.84H48.745ZM52.0966 89.1176L51.4674 88.3432L53.0524 86.0927H54.3229L52.0966 89.1176ZM57.9196 91.961C57.3469 91.961 56.8306 91.8319 56.3708 91.5738C55.9111 91.3076 55.5481 90.9487 55.2819 90.4969C55.0157 90.0452 54.8826 89.533 54.8826 88.9603C54.8826 88.3957 55.0117 87.8875 55.2698 87.4358C55.536 86.984 55.8909 86.6291 56.3345 86.371C56.7863 86.1048 57.2904 85.9717 57.847 85.9717C58.3794 85.9717 58.8472 86.0927 59.2505 86.3347C59.6619 86.5767 59.9805 86.9114 60.2064 87.339C60.4403 87.7665 60.5573 88.2505 60.5573 88.7909C60.5573 88.8716 60.5533 88.9603 60.5452 89.0571C60.5371 89.1458 60.521 89.2507 60.4968 89.3717H55.6449V88.4642H59.916L59.5167 88.8151C59.5167 88.4279 59.4482 88.1012 59.311 87.835C59.1739 87.5608 58.9803 87.3511 58.7303 87.2059C58.4802 87.0526 58.1777 86.976 57.8228 86.976C57.4517 86.976 57.125 87.0566 56.8427 87.218C56.5604 87.3793 56.3426 87.6052 56.1893 87.8955C56.0361 88.1859 55.9595 88.5288 55.9595 88.924C55.9595 89.3273 56.0401 89.6822 56.2014 89.9888C56.3628 90.2872 56.5927 90.5211 56.8911 90.6905C57.1896 90.8519 57.5324 90.9325 57.9196 90.9325C58.2422 90.9325 58.5367 90.8761 58.8029 90.7631C59.0771 90.6502 59.311 90.4808 59.5046 90.255L60.2064 90.9688C59.9321 91.2915 59.5934 91.5375 59.19 91.7069C58.7948 91.8763 58.3713 91.961 57.9196 91.961ZM68.2906 91.961C67.6937 91.961 67.1371 91.8521 66.6209 91.6343C66.1046 91.4084 65.6529 91.0979 65.2657 90.7026C64.8785 90.2993 64.576 89.8355 64.3582 89.3112C64.1405 88.7869 64.0316 88.2263 64.0316 87.6294C64.0316 87.0244 64.1405 86.4638 64.3582 85.9475C64.576 85.4232 64.8745 84.9634 65.2536 84.5682C65.6408 84.1729 66.0885 83.8664 66.5967 83.6486C67.1129 83.4308 67.6695 83.3219 68.2664 83.3219C68.8633 83.3219 69.4159 83.4308 69.924 83.6486C70.4403 83.8664 70.892 84.1729 71.2792 84.5682C71.6664 84.9634 71.9648 85.4232 72.1746 85.9475C72.3923 86.4718 72.5012 87.0365 72.5012 87.6415C72.5012 88.2384 72.3923 88.799 72.1746 89.3233C71.9648 89.8476 71.6664 90.3074 71.2792 90.7026C70.9001 91.0979 70.4524 91.4084 69.9361 91.6343C69.428 91.8521 68.8794 91.961 68.2906 91.961ZM72.3076 92.4329L68.3753 88.5005L69.1134 87.7624L73.0336 91.6948L72.3076 92.4329ZM68.2664 90.872C68.8633 90.872 69.3917 90.7349 69.8514 90.4606C70.3112 90.1783 70.6702 89.7952 70.9283 89.3112C71.1945 88.8191 71.3276 88.2585 71.3276 87.6294C71.3276 87.1615 71.251 86.734 71.0977 86.3468C70.9525 85.9515 70.7428 85.6087 70.4685 85.3183C70.1943 85.028 69.8716 84.8061 69.5006 84.6529C69.1295 84.4915 68.7181 84.4109 68.2664 84.4109C67.6695 84.4109 67.1411 84.548 66.6814 84.8223C66.2216 85.0965 65.8586 85.4756 65.5924 85.9596C65.3343 86.4436 65.2052 87.0002 65.2052 87.6294C65.2052 88.0972 65.2818 88.5328 65.4351 88.9361C65.5884 89.3314 65.7981 89.6742 66.0643 89.9646C66.3385 90.2469 66.6612 90.4687 67.0322 90.63C67.4114 90.7914 67.8227 90.872 68.2664 90.872ZM76.4745 91.961C75.9986 91.961 75.5711 91.8561 75.192 91.6464C74.8209 91.4286 74.5305 91.1302 74.3208 90.751C74.1111 90.3719 74.0062 89.9323 74.0062 89.4322V86.0927H75.0952V89.3838C75.0952 89.6984 75.1476 89.9726 75.2525 90.2066C75.3654 90.4324 75.5267 90.6058 75.7365 90.7268C75.9462 90.8478 76.1922 90.9083 76.4745 90.9083C76.902 90.9083 77.2368 90.7752 77.4788 90.509C77.7208 90.2348 77.8418 89.8597 77.8418 89.3838V86.0927H78.9307V89.4322C78.9307 89.9323 78.8259 90.3719 78.6161 90.751C78.4064 91.1302 78.116 91.4286 77.745 91.6464C77.382 91.8561 76.9585 91.961 76.4745 91.961ZM82.8343 91.961C82.31 91.961 81.8341 91.8319 81.4066 91.5738C80.9791 91.3076 80.6403 90.9487 80.3902 90.4969C80.1482 90.0452 80.0273 89.537 80.0273 88.9724C80.0273 88.4078 80.1482 87.8996 80.3902 87.4479C80.6403 86.9961 80.975 86.6372 81.3945 86.371C81.822 86.1048 82.302 85.9717 82.8343 85.9717C83.2699 85.9717 83.6571 86.0645 83.9959 86.25C84.3428 86.4275 84.621 86.6775 84.8308 87.0002C85.0405 87.3148 85.1575 87.6818 85.1817 88.1012V89.8315C85.1575 90.2429 85.0405 90.6099 84.8308 90.9325C84.6291 91.2552 84.3549 91.5093 84.008 91.6948C83.6692 91.8723 83.278 91.961 82.8343 91.961ZM83.0158 90.9325C83.5563 90.9325 83.9919 90.751 84.3226 90.3881C84.6533 90.017 84.8187 89.5451 84.8187 88.9724C84.8187 88.5772 84.742 88.2343 84.5888 87.9439C84.4436 87.6455 84.2339 87.4156 83.9596 87.2543C83.6853 87.0849 83.3667 87.0002 83.0037 87.0002C82.6408 87.0002 82.3181 87.0849 82.0358 87.2543C81.7615 87.4237 81.5437 87.6576 81.3824 87.956C81.2291 88.2464 81.1525 88.5812 81.1525 88.9603C81.1525 89.3475 81.2291 89.6903 81.3824 89.9888C81.5437 90.2792 81.7656 90.509 82.0479 90.6784C82.3302 90.8478 82.6529 90.9325 83.0158 90.9325ZM84.7461 91.84V90.2913L84.9518 88.8877L84.7461 87.4963V86.0927H85.8471V91.84H84.7461ZM87.4326 91.84V83.2009H88.5215V91.84H87.4326ZM90.1269 91.84V86.0927H91.2158V91.84H90.1269ZM90.6714 84.9433C90.4697 84.9433 90.3043 84.8787 90.1753 84.7497C90.0462 84.6125 89.9817 84.4431 89.9817 84.2415C89.9817 84.0479 90.0462 83.8866 90.1753 83.7575C90.3043 83.6204 90.4697 83.5518 90.6714 83.5518C90.873 83.5518 91.0384 83.6204 91.1674 83.7575C91.2965 83.8866 91.361 84.0479 91.361 84.2415C91.361 84.4431 91.2965 84.6125 91.1674 84.7497C91.0384 84.8787 90.873 84.9433 90.6714 84.9433ZM93.7039 91.84V83.6849H94.7929V91.84H93.7039ZM92.2883 87.0849V86.0927H96.2085V87.0849H92.2883ZM99.1628 91.8884L96.6703 86.0927H97.8802L99.7315 90.63H99.3443L101.292 86.0927H102.502L99.8162 91.8884H99.1628ZM97.5172 94.2478L99.2112 90.7752L99.8162 91.8884L98.7272 94.2478H97.5172ZM106.963 88.1859V87.2301H109.238C109.73 87.2301 110.109 87.105 110.375 86.855C110.641 86.6049 110.774 86.2661 110.774 85.8386C110.774 85.4353 110.641 85.1005 110.375 84.8344C110.117 84.5682 109.742 84.4351 109.25 84.4351H106.963V83.4429H109.286C109.819 83.4429 110.282 83.5478 110.678 83.7575C111.073 83.9592 111.375 84.2374 111.585 84.5924C111.803 84.9473 111.912 85.3546 111.912 85.8144C111.912 86.2903 111.803 86.7058 111.585 87.0607C111.375 87.4156 111.073 87.6939 110.678 87.8955C110.282 88.0891 109.819 88.1859 109.286 88.1859H106.963ZM106.201 91.84V83.4429H107.338V91.84H106.201ZM111.041 91.84L107.992 88.077L109.068 87.702L112.481 91.84H111.041ZM115.718 91.961C115.194 91.961 114.718 91.8319 114.29 91.5738C113.863 91.3076 113.524 90.9487 113.274 90.4969C113.032 90.0452 112.911 89.537 112.911 88.9724C112.911 88.4078 113.032 87.8996 113.274 87.4479C113.524 86.9961 113.859 86.6372 114.278 86.371C114.706 86.1048 115.186 85.9717 115.718 85.9717C116.154 85.9717 116.541 86.0645 116.88 86.25C117.227 86.4275 117.505 86.6775 117.715 87.0002C117.924 87.3148 118.041 87.6818 118.065 88.1012V89.8315C118.041 90.2429 117.924 90.6099 117.715 90.9325C117.513 91.2552 117.239 91.5093 116.892 91.6948C116.553 91.8723 116.162 91.961 115.718 91.961ZM115.9 90.9325C116.44 90.9325 116.876 90.751 117.206 90.3881C117.537 90.017 117.702 89.5451 117.702 88.9724C117.702 88.5772 117.626 88.2343 117.473 87.9439C117.327 87.6455 117.118 87.4156 116.843 87.2543C116.569 87.0849 116.251 87.0002 115.888 87.0002C115.525 87.0002 115.202 87.0849 114.92 87.2543C114.645 87.4237 114.428 87.6576 114.266 87.956C114.113 88.2464 114.036 88.5812 114.036 88.9603C114.036 89.3475 114.113 89.6903 114.266 89.9888C114.428 90.2792 114.649 90.509 114.932 90.6784C115.214 90.8478 115.537 90.9325 115.9 90.9325ZM117.63 91.84V90.2913L117.836 88.8877L117.63 87.4963V86.0927H118.731V91.84H117.63ZM121.176 91.84V83.6849H122.265V91.84H121.176ZM119.76 87.0849V86.0927H123.681V87.0849H119.76ZM124.759 91.84V86.0927H125.848V91.84H124.759ZM125.304 84.9433C125.102 84.9433 124.937 84.8787 124.808 84.7497C124.679 84.6125 124.614 84.4431 124.614 84.2415C124.614 84.0479 124.679 83.8866 124.808 83.7575C124.937 83.6204 125.102 83.5518 125.304 83.5518C125.506 83.5518 125.671 83.6204 125.8 83.7575C125.929 83.8866 125.994 84.0479 125.994 84.2415C125.994 84.4431 125.929 84.6125 125.8 84.7497C125.671 84.8787 125.506 84.9433 125.304 84.9433ZM131.519 91.84V88.4884C131.519 88.0528 131.382 87.6939 131.107 87.4116C130.833 87.1292 130.478 86.9881 130.043 86.9881C129.752 86.9881 129.494 87.0526 129.268 87.1817C129.042 87.3107 128.865 87.4882 128.736 87.7141C128.607 87.9399 128.542 88.198 128.542 88.4884L128.095 88.2343C128.095 87.7987 128.191 87.4116 128.385 87.0728C128.578 86.734 128.849 86.4678 129.196 86.2742C129.542 86.0725 129.934 85.9717 130.369 85.9717C130.805 85.9717 131.188 86.0806 131.519 86.2984C131.857 86.5162 132.124 86.8026 132.317 87.1575C132.511 87.5043 132.608 87.8754 132.608 88.2706V91.84H131.519ZM127.453 91.84V86.0927H128.542V91.84H127.453ZM136.466 94.3688C135.877 94.3688 135.352 94.2599 134.893 94.0421C134.441 93.8243 134.078 93.5178 133.804 93.1225L134.505 92.4087C134.739 92.7071 135.018 92.933 135.34 93.0862C135.663 93.2476 136.046 93.3282 136.49 93.3282C137.079 93.3282 137.542 93.1709 137.881 92.8564C138.228 92.5498 138.402 92.1344 138.402 91.6101V90.1824L138.595 88.8877L138.402 87.6052V86.0927H139.49V91.6101C139.49 92.1586 139.361 92.6386 139.103 93.05C138.853 93.4613 138.498 93.784 138.039 94.0179C137.587 94.2518 137.063 94.3688 136.466 94.3688ZM136.466 91.7432C135.941 91.7432 135.469 91.6182 135.05 91.3681C134.639 91.1181 134.312 90.7752 134.07 90.3397C133.828 89.896 133.707 89.3999 133.707 88.8514C133.707 88.3029 133.828 87.8149 134.07 87.3874C134.312 86.9518 134.639 86.609 135.05 86.3589C135.469 86.1008 135.941 85.9717 136.466 85.9717C136.917 85.9717 137.317 86.0604 137.663 86.2379C138.01 86.4154 138.285 86.6654 138.486 86.9881C138.696 87.3027 138.809 87.6737 138.825 88.1012V89.6258C138.801 90.0452 138.684 90.4163 138.474 90.7389C138.272 91.0535 137.998 91.2995 137.651 91.477C137.304 91.6545 136.909 91.7432 136.466 91.7432ZM136.683 90.7147C137.038 90.7147 137.349 90.6381 137.615 90.4848C137.889 90.3316 138.099 90.1178 138.244 89.8436C138.389 89.5612 138.462 89.2346 138.462 88.8635C138.462 88.4925 138.385 88.1698 138.232 87.8955C138.087 87.6132 137.881 87.3954 137.615 87.2422C137.349 87.0808 137.034 87.0002 136.671 87.0002C136.308 87.0002 135.99 87.0808 135.715 87.2422C135.441 87.3954 135.223 87.6132 135.062 87.8955C134.909 88.1698 134.832 88.4884 134.832 88.8514C134.832 89.2144 134.909 89.537 135.062 89.8194C135.223 90.1017 135.441 90.3235 135.715 90.4848C135.998 90.6381 136.32 90.7147 136.683 90.7147ZM147.623 91.961C147.026 91.961 146.469 91.8521 145.953 91.6343C145.437 91.4084 144.985 91.0979 144.598 90.7026C144.211 90.2993 143.908 89.8355 143.69 89.3112C143.481 88.7869 143.376 88.2263 143.376 87.6294C143.376 87.0244 143.481 86.4638 143.69 85.9475C143.908 85.4232 144.207 84.9634 144.586 84.5682C144.973 84.1729 145.421 83.8664 145.929 83.6486C146.445 83.4308 147.002 83.3219 147.598 83.3219C148.195 83.3219 148.748 83.4308 149.256 83.6486C149.772 83.8664 150.224 84.1729 150.611 84.5682C150.998 84.9634 151.301 85.4232 151.519 85.9475C151.737 86.4718 151.845 87.0365 151.845 87.6415C151.845 88.2384 151.737 88.799 151.519 89.3233C151.301 89.8476 150.998 90.3074 150.611 90.7026C150.232 91.0979 149.784 91.4084 149.268 91.6343C148.76 91.8521 148.212 91.961 147.623 91.961ZM147.598 90.872C148.203 90.872 148.732 90.7349 149.184 90.4606C149.643 90.1783 150.006 89.7952 150.272 89.3112C150.539 88.8191 150.672 88.2585 150.672 87.6294C150.672 87.1615 150.595 86.734 150.442 86.3468C150.289 85.9515 150.075 85.6087 149.801 85.3183C149.526 85.028 149.204 84.8061 148.833 84.6529C148.462 84.4915 148.05 84.4109 147.598 84.4109C147.002 84.4109 146.473 84.548 146.013 84.8223C145.562 85.0965 145.203 85.4756 144.937 85.9596C144.678 86.4436 144.549 87.0002 144.549 87.6294C144.549 88.0972 144.622 88.5328 144.767 88.9361C144.92 89.3314 145.13 89.6742 145.396 89.9646C145.671 90.2469 145.993 90.4687 146.364 90.63C146.743 90.7914 147.155 90.872 147.598 90.872ZM157.277 91.84V88.4884C157.277 88.0528 157.14 87.6939 156.866 87.4116C156.592 87.1292 156.237 86.9881 155.801 86.9881C155.511 86.9881 155.253 87.0526 155.027 87.1817C154.801 87.3107 154.624 87.4882 154.495 87.7141C154.366 87.9399 154.301 88.198 154.301 88.4884L153.853 88.2343C153.853 87.7987 153.95 87.4116 154.144 87.0728C154.337 86.734 154.608 86.4678 154.954 86.2742C155.301 86.0725 155.692 85.9717 156.128 85.9717C156.564 85.9717 156.947 86.0806 157.277 86.2984C157.616 86.5162 157.882 86.8026 158.076 87.1575C158.27 87.5043 158.366 87.8754 158.366 88.2706V91.84H157.277ZM153.212 91.84V86.0927H154.301V91.84H153.212ZM166.363 91.961C165.758 91.961 165.197 91.8521 164.681 91.6343C164.164 91.4084 163.713 91.0979 163.326 90.7026C162.946 90.3074 162.652 89.8476 162.442 89.3233C162.233 88.799 162.128 88.2384 162.128 87.6415C162.128 87.0365 162.233 86.4718 162.442 85.9475C162.652 85.4232 162.946 84.9675 163.326 84.5803C163.713 84.185 164.16 83.8785 164.669 83.6607C165.185 83.4348 165.745 83.3219 166.35 83.3219C167.012 83.3219 167.593 83.4348 168.093 83.6607C168.593 83.8866 169.037 84.1931 169.424 84.5803L168.637 85.3667C168.371 85.0683 168.044 84.8344 167.657 84.665C167.278 84.4956 166.842 84.4109 166.35 84.4109C165.907 84.4109 165.499 84.4915 165.128 84.6529C164.757 84.8061 164.435 85.028 164.16 85.3183C163.886 85.6087 163.672 85.9515 163.519 86.3468C163.374 86.7421 163.301 87.1736 163.301 87.6415C163.301 88.1093 163.374 88.5409 163.519 88.9361C163.672 89.3314 163.886 89.6742 164.16 89.9646C164.435 90.255 164.757 90.4808 165.128 90.6421C165.499 90.7954 165.907 90.872 166.35 90.872C166.875 90.872 167.33 90.7873 167.718 90.6179C168.105 90.4405 168.432 90.2025 168.698 89.9041L169.484 90.6784C169.097 91.0818 168.641 91.3963 168.117 91.6222C167.601 91.8481 167.016 91.961 166.363 91.961ZM170.688 91.84V83.2009H171.777V91.84H170.688ZM175.693 91.961C175.217 91.961 174.79 91.8561 174.411 91.6464C174.04 91.4286 173.749 91.1302 173.539 90.751C173.33 90.3719 173.225 89.9323 173.225 89.4322V86.0927H174.314V89.3838C174.314 89.6984 174.366 89.9726 174.471 90.2066C174.584 90.4324 174.745 90.6058 174.955 90.7268C175.165 90.8478 175.411 90.9083 175.693 90.9083C176.121 90.9083 176.455 90.7752 176.697 90.509C176.939 90.2348 177.06 89.8597 177.06 89.3838V86.0927H178.149V89.4322C178.149 89.9323 178.045 90.3719 177.835 90.751C177.625 91.1302 177.335 91.4286 176.964 91.6464C176.601 91.8561 176.177 91.961 175.693 91.961ZM180.492 91.84V83.6849H181.581V91.84H180.492ZM179.077 87.0849V86.0927H182.997V87.0849H179.077ZM186.512 91.961C185.947 91.961 185.435 91.8279 184.975 91.5617C184.524 91.2955 184.165 90.9366 183.898 90.4848C183.64 90.0251 183.511 89.5169 183.511 88.9603C183.511 88.3957 183.64 87.8875 183.898 87.4358C184.165 86.984 184.524 86.6291 184.975 86.371C185.435 86.1048 185.947 85.9717 186.512 85.9717C186.956 85.9717 187.367 86.0564 187.746 86.2258C188.125 86.3871 188.452 86.6251 188.726 86.9397L188 87.6657C187.823 87.4559 187.605 87.2986 187.347 87.1938C187.097 87.0808 186.818 87.0244 186.512 87.0244C186.149 87.0244 185.826 87.1091 185.544 87.2785C185.262 87.4398 185.04 87.6657 184.878 87.956C184.717 88.2464 184.636 88.5812 184.636 88.9603C184.636 89.3394 184.717 89.6742 184.878 89.9646C185.04 90.255 185.262 90.4848 185.544 90.6542C185.826 90.8236 186.149 90.9083 186.512 90.9083C186.818 90.9083 187.097 90.8559 187.347 90.751C187.605 90.6381 187.827 90.4768 188.012 90.2671L188.726 90.993C188.46 91.2995 188.133 91.5375 187.746 91.7069C187.367 91.8763 186.956 91.961 186.512 91.961ZM193.872 91.84V88.4884C193.872 88.0528 193.734 87.6939 193.46 87.4116C193.186 87.1292 192.831 86.9881 192.395 86.9881C192.105 86.9881 191.847 87.0526 191.621 87.1817C191.395 87.3107 191.218 87.4882 191.089 87.7141C190.96 87.9399 190.895 88.198 190.895 88.4884L190.447 88.2343C190.447 87.7987 190.544 87.4116 190.738 87.0728C190.931 86.734 191.202 86.4678 191.548 86.2742C191.895 86.0725 192.286 85.9717 192.722 85.9717C193.158 85.9717 193.541 86.0685 193.872 86.2621C194.21 86.4557 194.476 86.7259 194.67 87.0728C194.864 87.4196 194.96 87.8189 194.96 88.2706V91.84H193.872ZM189.806 91.84V83.2009H190.895V91.84H189.806Z" fill="white"/>
</svg>
