<svg width="186" height="32" viewBox="0 0 186 32" fill="none" xmlns="http://www.w3.org/2000/svg">
<path d="M138.813 20.8015H140.744V22.9945H131.051C130.594 22.9945 130.211 22.7928 129.883 22.392C129.536 21.973 129.371 21.4791 129.371 20.9489V12.5443H132.202V20.8015H135.982V12.5445H138.813V20.8041V20.8015Z" fill="#2F2D47"/>
<path d="M143.77 12.5482H149.414C149.962 12.5482 150.438 12.7861 150.839 13.28C151.222 13.7378 151.423 14.3041 151.423 14.9791V20.7874H153.162V22.9803H143.718C143.152 22.9803 142.676 22.7424 142.294 22.2692C141.911 21.7752 141.709 21.2089 141.709 20.552V14.9765C141.709 14.3558 141.911 13.7895 142.33 13.2774C142.73 12.7835 143.206 12.5456 143.772 12.5456L143.77 12.5482ZM148.592 20.7874V14.7386H144.538V20.7848H148.592V20.7874Z" fill="#2F2D47"/>
<path d="M154.586 8.8389H157.417V22.995H154.586V8.8389Z" fill="#2F2D47"/>
<path d="M161.8 11.6137C161.381 11.6137 161.032 11.4689 160.758 11.1741C160.465 10.8638 160.318 10.5172 160.318 10.1319C160.318 9.74658 160.463 9.38195 160.758 9.07162C161.068 8.7975 161.414 8.65268 161.8 8.65268C162.658 8.65268 163.279 9.27333 163.279 10.1319C163.279 10.5146 163.131 10.8638 162.857 11.1741C162.547 11.4663 162.182 11.6137 161.797 11.6137H161.8ZM160.375 12.5628H163.206V22.995H160.375V12.5654V12.5628Z" fill="#2F2D47"/>
<path d="M172.61 22.9945H169.213C168.664 22.9945 168.189 22.7928 167.788 22.392C167.405 22.0093 167.204 21.5153 167.204 20.949V14.8278H165.249V12.565H167.204V9.89615H170.035V12.565H172.646V14.8303H170.035V20.7292H172.61V22.9945Z" fill="#2F2D47"/>
<path d="M173.779 12.5647H176.812L179.625 19.2316L182.218 12.5647H185.249L179.441 26.8294H176.592L178.255 22.7021L173.779 12.5647Z" fill="#2F2D47"/>
<path fill-rule="evenodd" clip-rule="evenodd" d="M124.587 8.8389H116.075C115.527 8.8389 115.051 9.04061 114.65 9.44145C114.268 9.82419 114.066 10.3181 114.066 10.8845V20.9494C114.066 21.5158 114.268 22.0097 114.65 22.3924C115.051 22.7933 115.527 22.995 116.075 22.995H124.587C124.926 22.995 125.237 22.9178 125.52 22.7639L121.798 20.4374H116.879V11.3939H123.783V16.7169L126.596 18.5154V10.8845C126.596 10.3362 126.394 9.86039 126.011 9.44145C125.629 9.04061 125.153 8.8389 124.587 8.8389ZM121.572 19.0273V17.8162V16.5806L122.523 17.1887L127.606 20.4387V21.5301V22.7989L126.53 22.1264L123.783 20.409V20.408L123.762 20.3963L121.572 19.0273Z" fill="#2F2D47"/>
<path d="M84.6725 12.5648H87.6711L89.8803 15.6706L92.1068 12.5648H95.1228L91.3895 17.7705L95.1426 22.9943H92.1441L89.9001 19.8704L87.6562 22.9943H84.6576L88.3909 17.7705L84.675 12.5648H84.6725Z" fill="#2F2D47"/>
<path d="M105.64 16.5685C105.638 18.8882 105.64 18.8882 103.711 18.8882H98.8362V20.789H105.657V22.9819H98.0468C97.5206 22.9819 97.0639 22.7259 96.6791 22.232C96.3118 21.738 96.1181 21.1355 96.1181 20.4424V15.0893C96.1181 14.3962 96.3118 13.7937 96.6791 13.2997C97.0639 12.8058 97.5206 12.5498 98.0468 12.5498H103.709C105.638 12.5498 105.638 12.5498 105.638 14.8695V16.5685H105.64ZM98.8362 14.7428V16.6978H103.33V14.7428H98.8362Z" fill="#2F2D47"/>
<path fill-rule="evenodd" clip-rule="evenodd" d="M71.0217 22.9943L71.0192 20.4367H64.6935L61.6684 22.9943H63.1238H71.0217ZM61.1148 21.8625V20.9487V8.83823H64.0365V19.3405L61.1148 21.8625Z" fill="#2F2D47"/>
<path d="M81.5082 20.8719H83.3623V22.9773H74.0565C73.6171 22.9773 73.2498 22.7836 72.9345 22.3988C72.6019 21.9966 72.443 21.5224 72.443 21.0135V12.5218H75.1611V20.8719H78.7901V12.5417H81.5082V20.8744V20.8719Z" fill="#2F2D47"/>
<path d="M42.5944 21.8324L37.618 24.6068L49.6286 31.2834L54.6051 28.509L42.5944 21.8324Z" fill="#2F2D47"/>
<path d="M35.5738 5.53576L44.6524 10.5918V20.691L49.6289 23.4524V7.81748L35.5738 0L30.5974 2.77436L35.5738 5.53576Z" fill="#2F2D47"/>
<path d="M35.5739 25.7468L26.5087 20.6907V10.5915L33.5295 6.67625L28.5531 3.91486L21.5323 7.81711V23.465L35.5739 31.2825L40.5503 28.5082L35.5739 25.7468Z" fill="#2F2D47"/>
<path d="M6.38745 26.4854L1.73382 31.2822H25.3786L16.7169 26.4854H6.38745Z" fill="#2F2D47"/>
<path d="M5.72789 24.2691L0.751465 29.4029V7.1826L5.72789 0.298553V24.2691Z" fill="#2F2D47"/>
</svg>
